<mxfile host="app.diagrams.net" agent="Mozilla/5.0 (Windows NT 10.0; Win64; x64) AppleWebKit/537.36 (KHTML, like Gecko) Chrome/131.0.0.0 Safari/537.36" version="24.8.6">
  <diagram id="R2lEEEUBdFMjLlhIrx00" name="Page-1">
    <mxGraphModel dx="1793" dy="930" grid="1" gridSize="10" guides="1" tooltips="1" connect="1" arrows="1" fold="1" page="1" pageScale="1" pageWidth="850" pageHeight="1100" math="0" shadow="0" extFonts="Permanent Marker^https://fonts.googleapis.com/css?family=Permanent+Marker">
      <root>
        <mxCell id="0" />
        <mxCell id="1" parent="0" />
        <mxCell id="C-vyLk0tnHw3VtMMgP7b-1" value="" style="edgeStyle=entityRelationEdgeStyle;endArrow=ERzeroToMany;startArrow=ERone;endFill=1;startFill=0;" parent="1" edge="1">
          <mxGeometry width="100" height="100" relative="1" as="geometry">
            <mxPoint x="410" y="40" as="sourcePoint" />
            <mxPoint x="580" y="40" as="targetPoint" />
          </mxGeometry>
        </mxCell>
        <mxCell id="GR5vHO_8xK8Zrt2Ty7Dj-1" value="" style="edgeStyle=entityRelationEdgeStyle;fontSize=12;html=1;endArrow=ERzeroToMany;endFill=1;rounded=0;" parent="1" edge="1">
          <mxGeometry width="100" height="100" relative="1" as="geometry">
            <mxPoint x="160" y="80" as="sourcePoint" />
            <mxPoint x="320" y="80" as="targetPoint" />
          </mxGeometry>
        </mxCell>
        <mxCell id="GR5vHO_8xK8Zrt2Ty7Dj-3" value="" style="edgeStyle=entityRelationEdgeStyle;fontSize=12;html=1;endArrow=ERone;endFill=1;rounded=0;" parent="1" edge="1">
          <mxGeometry width="100" height="100" relative="1" as="geometry">
            <mxPoint x="160" y="120" as="sourcePoint" />
            <mxPoint x="320" y="120" as="targetPoint" />
          </mxGeometry>
        </mxCell>
        <mxCell id="GR5vHO_8xK8Zrt2Ty7Dj-4" value="" style="edgeStyle=entityRelationEdgeStyle;fontSize=12;html=1;endArrow=ERmany;rounded=0;" parent="1" edge="1">
          <mxGeometry width="100" height="100" relative="1" as="geometry">
            <mxPoint x="160" y="160" as="sourcePoint" />
            <mxPoint x="320" y="160" as="targetPoint" />
          </mxGeometry>
        </mxCell>
        <mxCell id="GR5vHO_8xK8Zrt2Ty7Dj-5" value="Attribute" style="ellipse;whiteSpace=wrap;html=1;align=center;" parent="1" vertex="1">
          <mxGeometry x="745" y="85" width="100" height="40" as="geometry" />
        </mxCell>
        <mxCell id="GR5vHO_8xK8Zrt2Ty7Dj-6" value="Entity" style="html=1;dashed=0;whiteSpace=wrap;" parent="1" vertex="1">
          <mxGeometry x="590" y="75" width="100" height="50" as="geometry" />
        </mxCell>
        <mxCell id="GR5vHO_8xK8Zrt2Ty7Dj-7" value="Relationship" style="shape=rhombus;html=1;dashed=0;whiteSpace=wrap;perimeter=rhombusPerimeter;" parent="1" vertex="1">
          <mxGeometry x="910" y="70" width="100" height="70" as="geometry" />
        </mxCell>
        <mxCell id="GR5vHO_8xK8Zrt2Ty7Dj-9" value="Student" style="html=1;dashed=0;whiteSpace=wrap;" parent="1" vertex="1">
          <mxGeometry x="410" y="805" width="100" height="50" as="geometry" />
        </mxCell>
        <mxCell id="GR5vHO_8xK8Zrt2Ty7Dj-27" value="Role" style="ellipse;whiteSpace=wrap;html=1;align=center;" parent="1" vertex="1">
          <mxGeometry x="1075" y="180" width="100" height="40" as="geometry" />
        </mxCell>
        <mxCell id="GR5vHO_8xK8Zrt2Ty7Dj-31" value="Name" style="ellipse;whiteSpace=wrap;html=1;align=center;" parent="1" vertex="1">
          <mxGeometry x="170" y="800" width="100" height="40" as="geometry" />
        </mxCell>
        <mxCell id="GR5vHO_8xK8Zrt2Ty7Dj-32" value="MS Auth ID" style="ellipse;whiteSpace=wrap;html=1;align=center;" parent="1" vertex="1">
          <mxGeometry x="170" y="705" width="100" height="40" as="geometry" />
        </mxCell>
        <mxCell id="GR5vHO_8xK8Zrt2Ty7Dj-33" value="STI email" style="ellipse;whiteSpace=wrap;html=1;align=center;" parent="1" vertex="1">
          <mxGeometry x="170" y="750" width="100" height="40" as="geometry" />
        </mxCell>
        <mxCell id="GR5vHO_8xK8Zrt2Ty7Dj-34" value="Role" style="ellipse;whiteSpace=wrap;html=1;align=center;" parent="1" vertex="1">
          <mxGeometry x="170" y="850" width="100" height="40" as="geometry" />
        </mxCell>
        <mxCell id="GR5vHO_8xK8Zrt2Ty7Dj-36" value="Branch" style="ellipse;whiteSpace=wrap;html=1;align=center;" parent="1" vertex="1">
          <mxGeometry x="170" y="950" width="100" height="40" as="geometry" />
        </mxCell>
        <mxCell id="GR5vHO_8xK8Zrt2Ty7Dj-45" value="Contacts" style="ellipse;whiteSpace=wrap;html=1;align=center;" parent="1" vertex="1">
          <mxGeometry x="170" y="900" width="100" height="40" as="geometry" />
        </mxCell>
        <mxCell id="GR5vHO_8xK8Zrt2Ty7Dj-67" value="Student ID" style="ellipse;whiteSpace=wrap;html=1;align=center;" parent="1" vertex="1">
          <mxGeometry x="170" y="660" width="100" height="40" as="geometry" />
        </mxCell>
        <mxCell id="569iE3gkdSnbsVmubHWF-21" value="" style="endArrow=none;html=1;rounded=0;entryX=0;entryY=0.5;entryDx=0;entryDy=0;exitX=1;exitY=0.5;exitDx=0;exitDy=0;" parent="1" source="GR5vHO_8xK8Zrt2Ty7Dj-67" target="GR5vHO_8xK8Zrt2Ty7Dj-9" edge="1">
          <mxGeometry width="50" height="50" relative="1" as="geometry">
            <mxPoint x="290" y="850" as="sourcePoint" />
            <mxPoint x="410" y="745" as="targetPoint" />
          </mxGeometry>
        </mxCell>
        <mxCell id="fWeWGqHYw4TgUaEqcF_e-12" value="Primary Key" style="edgeLabel;html=1;align=center;verticalAlign=middle;resizable=0;points=[];" parent="569iE3gkdSnbsVmubHWF-21" vertex="1" connectable="0">
          <mxGeometry x="-0.7892" y="2" relative="1" as="geometry">
            <mxPoint x="14" y="15" as="offset" />
          </mxGeometry>
        </mxCell>
        <mxCell id="569iE3gkdSnbsVmubHWF-22" value="" style="endArrow=none;html=1;rounded=0;exitX=1;exitY=0.5;exitDx=0;exitDy=0;entryX=0;entryY=0.5;entryDx=0;entryDy=0;" parent="1" source="GR5vHO_8xK8Zrt2Ty7Dj-33" target="GR5vHO_8xK8Zrt2Ty7Dj-9" edge="1">
          <mxGeometry width="50" height="50" relative="1" as="geometry">
            <mxPoint x="280" y="690" as="sourcePoint" />
            <mxPoint x="410" y="830" as="targetPoint" />
          </mxGeometry>
        </mxCell>
        <mxCell id="569iE3gkdSnbsVmubHWF-23" value="" style="endArrow=none;html=1;rounded=0;entryX=0;entryY=0.5;entryDx=0;entryDy=0;exitX=1;exitY=0.5;exitDx=0;exitDy=0;" parent="1" source="GR5vHO_8xK8Zrt2Ty7Dj-31" target="GR5vHO_8xK8Zrt2Ty7Dj-9" edge="1">
          <mxGeometry width="50" height="50" relative="1" as="geometry">
            <mxPoint x="290" y="700" as="sourcePoint" />
            <mxPoint x="430" y="855" as="targetPoint" />
          </mxGeometry>
        </mxCell>
        <mxCell id="569iE3gkdSnbsVmubHWF-24" value="" style="endArrow=none;html=1;rounded=0;entryX=0;entryY=0.5;entryDx=0;entryDy=0;exitX=1;exitY=0.5;exitDx=0;exitDy=0;" parent="1" source="GR5vHO_8xK8Zrt2Ty7Dj-34" target="GR5vHO_8xK8Zrt2Ty7Dj-9" edge="1">
          <mxGeometry width="50" height="50" relative="1" as="geometry">
            <mxPoint x="300" y="710" as="sourcePoint" />
            <mxPoint x="440" y="865" as="targetPoint" />
          </mxGeometry>
        </mxCell>
        <mxCell id="569iE3gkdSnbsVmubHWF-25" value="" style="endArrow=none;html=1;rounded=0;entryX=1;entryY=0.5;entryDx=0;entryDy=0;exitX=0;exitY=0.5;exitDx=0;exitDy=0;" parent="1" source="GR5vHO_8xK8Zrt2Ty7Dj-9" target="GR5vHO_8xK8Zrt2Ty7Dj-32" edge="1">
          <mxGeometry width="50" height="50" relative="1" as="geometry">
            <mxPoint x="310" y="720" as="sourcePoint" />
            <mxPoint x="450" y="875" as="targetPoint" />
          </mxGeometry>
        </mxCell>
        <mxCell id="569iE3gkdSnbsVmubHWF-26" value="" style="endArrow=none;html=1;rounded=0;entryX=1;entryY=0.5;entryDx=0;entryDy=0;exitX=0;exitY=0.5;exitDx=0;exitDy=0;" parent="1" source="GR5vHO_8xK8Zrt2Ty7Dj-9" target="GR5vHO_8xK8Zrt2Ty7Dj-45" edge="1">
          <mxGeometry width="50" height="50" relative="1" as="geometry">
            <mxPoint x="320" y="730" as="sourcePoint" />
            <mxPoint x="460" y="885" as="targetPoint" />
          </mxGeometry>
        </mxCell>
        <mxCell id="569iE3gkdSnbsVmubHWF-27" value="" style="endArrow=none;html=1;rounded=0;entryX=1;entryY=0.5;entryDx=0;entryDy=0;exitX=0;exitY=0.5;exitDx=0;exitDy=0;" parent="1" source="GR5vHO_8xK8Zrt2Ty7Dj-9" target="GR5vHO_8xK8Zrt2Ty7Dj-36" edge="1">
          <mxGeometry width="50" height="50" relative="1" as="geometry">
            <mxPoint x="330" y="740" as="sourcePoint" />
            <mxPoint x="470" y="895" as="targetPoint" />
          </mxGeometry>
        </mxCell>
        <mxCell id="569iE3gkdSnbsVmubHWF-28" value="Course" style="html=1;dashed=0;whiteSpace=wrap;" parent="1" vertex="1">
          <mxGeometry x="740" y="805" width="100" height="50" as="geometry" />
        </mxCell>
        <mxCell id="fWeWGqHYw4TgUaEqcF_e-17" value="Pre-Assessments" style="html=1;dashed=0;whiteSpace=wrap;" parent="1" vertex="1">
          <mxGeometry x="690" y="955" width="100" height="50" as="geometry" />
        </mxCell>
        <mxCell id="fWeWGqHYw4TgUaEqcF_e-21" value="Leaderboard" style="html=1;dashed=0;whiteSpace=wrap;" parent="1" vertex="1">
          <mxGeometry x="790" y="465" width="100" height="50" as="geometry" />
        </mxCell>
        <mxCell id="fWeWGqHYw4TgUaEqcF_e-24" value="Assigned in" style="shape=rhombus;html=1;dashed=0;whiteSpace=wrap;perimeter=rhombusPerimeter;" parent="1" vertex="1">
          <mxGeometry x="580" y="790" width="100" height="80" as="geometry" />
        </mxCell>
        <mxCell id="fWeWGqHYw4TgUaEqcF_e-28" value="" style="edgeStyle=entityRelationEdgeStyle;fontSize=12;html=1;endArrow=ERoneToMany;startArrow=ERoneToMany;rounded=0;exitX=1;exitY=0.5;exitDx=0;exitDy=0;entryX=0;entryY=0.5;entryDx=0;entryDy=0;" parent="1" source="GR5vHO_8xK8Zrt2Ty7Dj-9" target="fWeWGqHYw4TgUaEqcF_e-24" edge="1">
          <mxGeometry width="100" height="100" relative="1" as="geometry">
            <mxPoint x="540" y="810" as="sourcePoint" />
            <mxPoint x="640" y="710" as="targetPoint" />
          </mxGeometry>
        </mxCell>
        <mxCell id="fWeWGqHYw4TgUaEqcF_e-29" value="" style="edgeStyle=entityRelationEdgeStyle;fontSize=12;html=1;endArrow=ERoneToMany;startArrow=ERoneToMany;rounded=0;exitX=1;exitY=0.5;exitDx=0;exitDy=0;entryX=0;entryY=0.5;entryDx=0;entryDy=0;" parent="1" source="fWeWGqHYw4TgUaEqcF_e-24" target="569iE3gkdSnbsVmubHWF-28" edge="1">
          <mxGeometry width="100" height="100" relative="1" as="geometry">
            <mxPoint x="520" y="840" as="sourcePoint" />
            <mxPoint x="590" y="840" as="targetPoint" />
          </mxGeometry>
        </mxCell>
        <mxCell id="fWeWGqHYw4TgUaEqcF_e-32" value="Takes" style="shape=rhombus;html=1;dashed=0;whiteSpace=wrap;perimeter=rhombusPerimeter;" parent="1" vertex="1">
          <mxGeometry x="520" y="940" width="100" height="80" as="geometry" />
        </mxCell>
        <mxCell id="fWeWGqHYw4TgUaEqcF_e-33" value="" style="edgeStyle=entityRelationEdgeStyle;fontSize=12;html=1;endArrow=ERoneToMany;startArrow=ERmandOne;rounded=0;exitX=0.5;exitY=1;exitDx=0;exitDy=0;entryX=0;entryY=0.5;entryDx=0;entryDy=0;" parent="1" source="GR5vHO_8xK8Zrt2Ty7Dj-9" target="fWeWGqHYw4TgUaEqcF_e-32" edge="1">
          <mxGeometry width="100" height="100" relative="1" as="geometry">
            <mxPoint x="510" y="980" as="sourcePoint" />
            <mxPoint x="610" y="880" as="targetPoint" />
          </mxGeometry>
        </mxCell>
        <mxCell id="fWeWGqHYw4TgUaEqcF_e-34" value="" style="edgeStyle=entityRelationEdgeStyle;fontSize=12;html=1;endArrow=ERoneToMany;startArrow=ERmandOne;rounded=0;exitX=1;exitY=0.5;exitDx=0;exitDy=0;entryX=0;entryY=0.5;entryDx=0;entryDy=0;" parent="1" source="fWeWGqHYw4TgUaEqcF_e-32" target="fWeWGqHYw4TgUaEqcF_e-17" edge="1">
          <mxGeometry width="100" height="100" relative="1" as="geometry">
            <mxPoint x="470" y="865" as="sourcePoint" />
            <mxPoint x="530" y="950" as="targetPoint" />
          </mxGeometry>
        </mxCell>
        <mxCell id="fWeWGqHYw4TgUaEqcF_e-35" value="Views" style="shape=rhombus;html=1;dashed=0;whiteSpace=wrap;perimeter=rhombusPerimeter;" parent="1" vertex="1">
          <mxGeometry x="520" y="570" width="100" height="80" as="geometry" />
        </mxCell>
        <mxCell id="fWeWGqHYw4TgUaEqcF_e-48" value="Assessment" style="html=1;dashed=0;whiteSpace=wrap;" parent="1" vertex="1">
          <mxGeometry x="950" y="805" width="100" height="50" as="geometry" />
        </mxCell>
        <mxCell id="fWeWGqHYw4TgUaEqcF_e-54" value="Course_ID" style="ellipse;whiteSpace=wrap;html=1;align=center;" parent="1" vertex="1">
          <mxGeometry x="815" y="620" width="100" height="40" as="geometry" />
        </mxCell>
        <mxCell id="fWeWGqHYw4TgUaEqcF_e-55" value="Course_Name" style="ellipse;whiteSpace=wrap;html=1;align=center;" parent="1" vertex="1">
          <mxGeometry x="705" y="620" width="100" height="40" as="geometry" />
        </mxCell>
        <mxCell id="fWeWGqHYw4TgUaEqcF_e-56" value="" style="endArrow=none;html=1;rounded=0;entryX=0.5;entryY=0;entryDx=0;entryDy=0;exitX=0.5;exitY=1;exitDx=0;exitDy=0;" parent="1" source="fWeWGqHYw4TgUaEqcF_e-55" target="569iE3gkdSnbsVmubHWF-28" edge="1">
          <mxGeometry width="50" height="50" relative="1" as="geometry">
            <mxPoint x="940" y="780" as="sourcePoint" />
            <mxPoint x="850" y="840" as="targetPoint" />
          </mxGeometry>
        </mxCell>
        <mxCell id="fWeWGqHYw4TgUaEqcF_e-57" value="" style="endArrow=none;html=1;rounded=0;entryX=0.5;entryY=0;entryDx=0;entryDy=0;exitX=0.5;exitY=1;exitDx=0;exitDy=0;" parent="1" source="fWeWGqHYw4TgUaEqcF_e-54" target="569iE3gkdSnbsVmubHWF-28" edge="1">
          <mxGeometry width="50" height="50" relative="1" as="geometry">
            <mxPoint x="950" y="790" as="sourcePoint" />
            <mxPoint x="860" y="850" as="targetPoint" />
          </mxGeometry>
        </mxCell>
        <mxCell id="fWeWGqHYw4TgUaEqcF_e-60" value="Lesson" style="html=1;dashed=0;whiteSpace=wrap;" parent="1" vertex="1">
          <mxGeometry x="950" y="720" width="100" height="50" as="geometry" />
        </mxCell>
        <mxCell id="fWeWGqHYw4TgUaEqcF_e-62" value="" style="edgeStyle=entityRelationEdgeStyle;fontSize=12;html=1;endArrow=ERoneToMany;startArrow=ERmandOne;rounded=0;exitX=1;exitY=0.25;exitDx=0;exitDy=0;entryX=0;entryY=0.5;entryDx=0;entryDy=0;" parent="1" source="569iE3gkdSnbsVmubHWF-28" target="fWeWGqHYw4TgUaEqcF_e-60" edge="1">
          <mxGeometry width="100" height="100" relative="1" as="geometry">
            <mxPoint x="1170" y="820" as="sourcePoint" />
            <mxPoint x="1270" y="720" as="targetPoint" />
          </mxGeometry>
        </mxCell>
        <mxCell id="fWeWGqHYw4TgUaEqcF_e-63" value="" style="edgeStyle=entityRelationEdgeStyle;fontSize=12;html=1;endArrow=ERzeroToOne;startArrow=ERmandOne;rounded=0;exitX=1;exitY=0.5;exitDx=0;exitDy=0;entryX=0;entryY=0.5;entryDx=0;entryDy=0;" parent="1" source="569iE3gkdSnbsVmubHWF-28" target="fWeWGqHYw4TgUaEqcF_e-48" edge="1">
          <mxGeometry width="100" height="100" relative="1" as="geometry">
            <mxPoint x="900" y="930" as="sourcePoint" />
            <mxPoint x="1000" y="830" as="targetPoint" />
          </mxGeometry>
        </mxCell>
        <mxCell id="fWeWGqHYw4TgUaEqcF_e-66" value="Assesment_ID" style="ellipse;whiteSpace=wrap;html=1;align=center;" parent="1" vertex="1">
          <mxGeometry x="1145" y="800" width="105" height="40" as="geometry" />
        </mxCell>
        <mxCell id="fWeWGqHYw4TgUaEqcF_e-67" value="Assessment_Name" style="ellipse;whiteSpace=wrap;html=1;align=center;" parent="1" vertex="1">
          <mxGeometry x="1145" y="850" width="115" height="50" as="geometry" />
        </mxCell>
        <mxCell id="fWeWGqHYw4TgUaEqcF_e-79" value="Produces" style="shape=rhombus;html=1;dashed=0;whiteSpace=wrap;perimeter=rhombusPerimeter;" parent="1" vertex="1">
          <mxGeometry x="690" y="1050" width="100" height="80" as="geometry" />
        </mxCell>
        <mxCell id="fWeWGqHYw4TgUaEqcF_e-80" value="Recommendation" style="html=1;dashed=0;whiteSpace=wrap;" parent="1" vertex="1">
          <mxGeometry x="510" y="1065" width="100" height="50" as="geometry" />
        </mxCell>
        <mxCell id="fWeWGqHYw4TgUaEqcF_e-82" value="" style="edgeStyle=entityRelationEdgeStyle;fontSize=12;html=1;endArrow=ERzeroToMany;startArrow=ERmandOne;rounded=0;exitX=1;exitY=0.5;exitDx=0;exitDy=0;entryX=1;entryY=0.5;entryDx=0;entryDy=0;" parent="1" source="fWeWGqHYw4TgUaEqcF_e-17" target="fWeWGqHYw4TgUaEqcF_e-79" edge="1">
          <mxGeometry width="100" height="100" relative="1" as="geometry">
            <mxPoint x="510" y="1100" as="sourcePoint" />
            <mxPoint x="610" y="1000" as="targetPoint" />
          </mxGeometry>
        </mxCell>
        <mxCell id="fWeWGqHYw4TgUaEqcF_e-83" value="" style="edgeStyle=entityRelationEdgeStyle;fontSize=12;html=1;endArrow=ERzeroToMany;startArrow=ERmandOne;rounded=0;exitX=0;exitY=0.5;exitDx=0;exitDy=0;entryX=1;entryY=0.5;entryDx=0;entryDy=0;" parent="1" source="fWeWGqHYw4TgUaEqcF_e-79" target="fWeWGqHYw4TgUaEqcF_e-80" edge="1">
          <mxGeometry width="100" height="100" relative="1" as="geometry">
            <mxPoint x="800" y="1300" as="sourcePoint" />
            <mxPoint x="800" y="1190" as="targetPoint" />
          </mxGeometry>
        </mxCell>
        <mxCell id="fWeWGqHYw4TgUaEqcF_e-87" value="Date_Assigned" style="ellipse;whiteSpace=wrap;html=1;align=center;" parent="1" vertex="1">
          <mxGeometry x="170" y="1000" width="100" height="40" as="geometry" />
        </mxCell>
        <mxCell id="fWeWGqHYw4TgUaEqcF_e-88" value="" style="endArrow=none;html=1;rounded=0;entryX=1;entryY=0.5;entryDx=0;entryDy=0;exitX=0;exitY=0.5;exitDx=0;exitDy=0;" parent="1" source="GR5vHO_8xK8Zrt2Ty7Dj-9" target="fWeWGqHYw4TgUaEqcF_e-87" edge="1">
          <mxGeometry width="50" height="50" relative="1" as="geometry">
            <mxPoint x="420" y="840" as="sourcePoint" />
            <mxPoint x="280" y="1030" as="targetPoint" />
          </mxGeometry>
        </mxCell>
        <mxCell id="fWeWGqHYw4TgUaEqcF_e-89" value="Learning_path_name" style="ellipse;whiteSpace=wrap;html=1;align=center;" parent="1" vertex="1">
          <mxGeometry x="340" y="1090" width="130" height="60" as="geometry" />
        </mxCell>
        <mxCell id="fWeWGqHYw4TgUaEqcF_e-90" value="Learning_path_id" style="ellipse;whiteSpace=wrap;html=1;align=center;" parent="1" vertex="1">
          <mxGeometry x="340" y="1030" width="130" height="50" as="geometry" />
        </mxCell>
        <mxCell id="fWeWGqHYw4TgUaEqcF_e-91" value="" style="endArrow=none;html=1;rounded=0;entryX=0;entryY=0.5;entryDx=0;entryDy=0;exitX=1;exitY=0.5;exitDx=0;exitDy=0;" parent="1" source="fWeWGqHYw4TgUaEqcF_e-90" target="fWeWGqHYw4TgUaEqcF_e-80" edge="1">
          <mxGeometry width="50" height="50" relative="1" as="geometry">
            <mxPoint x="420" y="840" as="sourcePoint" />
            <mxPoint x="280" y="1080" as="targetPoint" />
          </mxGeometry>
        </mxCell>
        <mxCell id="fWeWGqHYw4TgUaEqcF_e-92" value="" style="endArrow=none;html=1;rounded=0;entryX=1;entryY=0.5;entryDx=0;entryDy=0;exitX=0;exitY=0.5;exitDx=0;exitDy=0;" parent="1" source="fWeWGqHYw4TgUaEqcF_e-80" target="fWeWGqHYw4TgUaEqcF_e-89" edge="1">
          <mxGeometry width="50" height="50" relative="1" as="geometry">
            <mxPoint x="480" y="1060" as="sourcePoint" />
            <mxPoint x="520" y="1100" as="targetPoint" />
          </mxGeometry>
        </mxCell>
        <mxCell id="fWeWGqHYw4TgUaEqcF_e-95" value="Badges" style="ellipse;whiteSpace=wrap;html=1;align=center;" parent="1" vertex="1">
          <mxGeometry x="920" y="620" width="100" height="40" as="geometry" />
        </mxCell>
        <mxCell id="fWeWGqHYw4TgUaEqcF_e-96" value="" style="endArrow=none;html=1;rounded=0;entryX=0.5;entryY=1;entryDx=0;entryDy=0;exitX=0.5;exitY=0;exitDx=0;exitDy=0;" parent="1" source="569iE3gkdSnbsVmubHWF-28" target="fWeWGqHYw4TgUaEqcF_e-95" edge="1">
          <mxGeometry width="50" height="50" relative="1" as="geometry">
            <mxPoint x="740" y="750" as="sourcePoint" />
            <mxPoint x="800" y="815" as="targetPoint" />
          </mxGeometry>
        </mxCell>
        <mxCell id="fWeWGqHYw4TgUaEqcF_e-97" value="Certificates" style="ellipse;whiteSpace=wrap;html=1;align=center;" parent="1" vertex="1">
          <mxGeometry x="1145" y="675" width="100" height="40" as="geometry" />
        </mxCell>
        <mxCell id="fWeWGqHYw4TgUaEqcF_e-98" value="Lesson_id" style="ellipse;whiteSpace=wrap;html=1;align=center;" parent="1" vertex="1">
          <mxGeometry x="1145" y="630" width="100" height="40" as="geometry" />
        </mxCell>
        <mxCell id="fWeWGqHYw4TgUaEqcF_e-101" value="" style="endArrow=none;html=1;rounded=0;entryX=1;entryY=0.5;entryDx=0;entryDy=0;exitX=0;exitY=0.5;exitDx=0;exitDy=0;" parent="1" source="fWeWGqHYw4TgUaEqcF_e-98" target="fWeWGqHYw4TgUaEqcF_e-60" edge="1">
          <mxGeometry width="50" height="50" relative="1" as="geometry">
            <mxPoint x="420" y="840" as="sourcePoint" />
            <mxPoint x="280" y="1080" as="targetPoint" />
          </mxGeometry>
        </mxCell>
        <mxCell id="fWeWGqHYw4TgUaEqcF_e-103" value="" style="endArrow=none;html=1;rounded=0;entryX=0;entryY=0.5;entryDx=0;entryDy=0;exitX=1;exitY=0.5;exitDx=0;exitDy=0;" parent="1" source="fWeWGqHYw4TgUaEqcF_e-60" target="fWeWGqHYw4TgUaEqcF_e-97" edge="1">
          <mxGeometry width="50" height="50" relative="1" as="geometry">
            <mxPoint x="440" y="860" as="sourcePoint" />
            <mxPoint x="300" y="1100" as="targetPoint" />
          </mxGeometry>
        </mxCell>
        <mxCell id="fWeWGqHYw4TgUaEqcF_e-104" value="" style="endArrow=none;html=1;rounded=0;entryX=0;entryY=0.5;entryDx=0;entryDy=0;exitX=1;exitY=0.5;exitDx=0;exitDy=0;" parent="1" source="fWeWGqHYw4TgUaEqcF_e-48" target="fWeWGqHYw4TgUaEqcF_e-66" edge="1">
          <mxGeometry width="50" height="50" relative="1" as="geometry">
            <mxPoint x="450" y="870" as="sourcePoint" />
            <mxPoint x="310" y="1110" as="targetPoint" />
          </mxGeometry>
        </mxCell>
        <mxCell id="fWeWGqHYw4TgUaEqcF_e-105" value="" style="endArrow=none;html=1;rounded=0;entryX=0;entryY=0.5;entryDx=0;entryDy=0;exitX=1;exitY=0.5;exitDx=0;exitDy=0;" parent="1" source="fWeWGqHYw4TgUaEqcF_e-48" target="fWeWGqHYw4TgUaEqcF_e-67" edge="1">
          <mxGeometry width="50" height="50" relative="1" as="geometry">
            <mxPoint x="460" y="880" as="sourcePoint" />
            <mxPoint x="320" y="1120" as="targetPoint" />
          </mxGeometry>
        </mxCell>
        <mxCell id="fWeWGqHYw4TgUaEqcF_e-108" value="" style="edgeStyle=entityRelationEdgeStyle;fontSize=12;html=1;endArrow=ERoneToMany;startArrow=ERzeroToOne;rounded=0;entryX=0.5;entryY=0;entryDx=0;entryDy=0;exitX=0;exitY=0.5;exitDx=0;exitDy=0;" parent="1" source="fWeWGqHYw4TgUaEqcF_e-35" target="GR5vHO_8xK8Zrt2Ty7Dj-9" edge="1">
          <mxGeometry width="100" height="100" relative="1" as="geometry">
            <mxPoint x="300" y="550" as="sourcePoint" />
            <mxPoint x="400" y="450" as="targetPoint" />
          </mxGeometry>
        </mxCell>
        <mxCell id="fWeWGqHYw4TgUaEqcF_e-109" value="" style="edgeStyle=entityRelationEdgeStyle;fontSize=12;html=1;endArrow=ERoneToMany;startArrow=ERzeroToOne;rounded=0;entryX=1;entryY=0.5;entryDx=0;entryDy=0;exitX=0;exitY=0.5;exitDx=0;exitDy=0;" parent="1" source="fWeWGqHYw4TgUaEqcF_e-21" target="fWeWGqHYw4TgUaEqcF_e-35" edge="1">
          <mxGeometry width="100" height="100" relative="1" as="geometry">
            <mxPoint x="772.5" y="640" as="sourcePoint" />
            <mxPoint x="687.5000000000005" y="640" as="targetPoint" />
            <Array as="points">
              <mxPoint x="622.5" y="750" />
            </Array>
          </mxGeometry>
        </mxCell>
        <mxCell id="fWeWGqHYw4TgUaEqcF_e-110" value="Calendar of Activites" style="html=1;dashed=0;whiteSpace=wrap;" parent="1" vertex="1">
          <mxGeometry x="715" y="330" width="100" height="50" as="geometry" />
        </mxCell>
        <mxCell id="fWeWGqHYw4TgUaEqcF_e-111" value="" style="edgeStyle=entityRelationEdgeStyle;fontSize=12;html=1;endArrow=ERoneToMany;startArrow=ERmandOne;rounded=0;exitX=0.5;exitY=0;exitDx=0;exitDy=0;entryX=0;entryY=0.5;entryDx=0;entryDy=0;" parent="1" source="fWeWGqHYw4TgUaEqcF_e-35" target="fWeWGqHYw4TgUaEqcF_e-110" edge="1">
          <mxGeometry width="100" height="100" relative="1" as="geometry">
            <mxPoint x="550" y="545" as="sourcePoint" />
            <mxPoint x="650" y="450" as="targetPoint" />
          </mxGeometry>
        </mxCell>
        <mxCell id="fWeWGqHYw4TgUaEqcF_e-112" value="Student_rank" style="ellipse;whiteSpace=wrap;html=1;align=center;" parent="1" vertex="1">
          <mxGeometry x="955" y="460" width="100" height="40" as="geometry" />
        </mxCell>
        <mxCell id="fWeWGqHYw4TgUaEqcF_e-113" value="Student_name" style="ellipse;whiteSpace=wrap;html=1;align=center;" parent="1" vertex="1">
          <mxGeometry x="955" y="510" width="100" height="40" as="geometry" />
        </mxCell>
        <mxCell id="fWeWGqHYw4TgUaEqcF_e-114" value="Student_id" style="ellipse;whiteSpace=wrap;html=1;align=center;" parent="1" vertex="1">
          <mxGeometry x="955" y="410" width="100" height="40" as="geometry" />
        </mxCell>
        <mxCell id="fWeWGqHYw4TgUaEqcF_e-115" value="" style="endArrow=none;html=1;rounded=0;entryX=1;entryY=0.5;entryDx=0;entryDy=0;exitX=0;exitY=0.5;exitDx=0;exitDy=0;" parent="1" source="fWeWGqHYw4TgUaEqcF_e-114" target="fWeWGqHYw4TgUaEqcF_e-21" edge="1">
          <mxGeometry width="50" height="50" relative="1" as="geometry">
            <mxPoint x="1230" y="550" as="sourcePoint" />
            <mxPoint x="1145" y="635" as="targetPoint" />
          </mxGeometry>
        </mxCell>
        <mxCell id="fWeWGqHYw4TgUaEqcF_e-116" value="" style="endArrow=none;html=1;rounded=0;entryX=1;entryY=0.5;entryDx=0;entryDy=0;exitX=0;exitY=0.5;exitDx=0;exitDy=0;" parent="1" source="fWeWGqHYw4TgUaEqcF_e-112" target="fWeWGqHYw4TgUaEqcF_e-21" edge="1">
          <mxGeometry width="50" height="50" relative="1" as="geometry">
            <mxPoint x="1215" y="560" as="sourcePoint" />
            <mxPoint x="1155" y="645" as="targetPoint" />
          </mxGeometry>
        </mxCell>
        <mxCell id="fWeWGqHYw4TgUaEqcF_e-117" value="" style="endArrow=none;html=1;rounded=0;entryX=1;entryY=0.5;entryDx=0;entryDy=0;exitX=0;exitY=0.5;exitDx=0;exitDy=0;" parent="1" source="fWeWGqHYw4TgUaEqcF_e-113" target="fWeWGqHYw4TgUaEqcF_e-21" edge="1">
          <mxGeometry width="50" height="50" relative="1" as="geometry">
            <mxPoint x="1250" y="570" as="sourcePoint" />
            <mxPoint x="1165" y="655" as="targetPoint" />
          </mxGeometry>
        </mxCell>
        <mxCell id="fWeWGqHYw4TgUaEqcF_e-118" value="progress" style="ellipse;whiteSpace=wrap;html=1;align=center;" parent="1" vertex="1">
          <mxGeometry x="845" y="370" width="100" height="40" as="geometry" />
        </mxCell>
        <mxCell id="fWeWGqHYw4TgUaEqcF_e-119" value="calendar_date" style="ellipse;whiteSpace=wrap;html=1;align=center;" parent="1" vertex="1">
          <mxGeometry x="845" y="270" width="100" height="40" as="geometry" />
        </mxCell>
        <mxCell id="fWeWGqHYw4TgUaEqcF_e-121" value="" style="endArrow=none;html=1;rounded=0;entryX=1;entryY=0.5;entryDx=0;entryDy=0;exitX=0;exitY=0.5;exitDx=0;exitDy=0;" parent="1" source="fWeWGqHYw4TgUaEqcF_e-119" target="fWeWGqHYw4TgUaEqcF_e-110" edge="1">
          <mxGeometry width="50" height="50" relative="1" as="geometry">
            <mxPoint x="965" y="440" as="sourcePoint" />
            <mxPoint x="900" y="500" as="targetPoint" />
          </mxGeometry>
        </mxCell>
        <mxCell id="fWeWGqHYw4TgUaEqcF_e-122" value="" style="endArrow=none;html=1;rounded=0;entryX=1;entryY=0.5;entryDx=0;entryDy=0;exitX=0;exitY=0.5;exitDx=0;exitDy=0;" parent="1" source="fWeWGqHYw4TgUaEqcF_e-120" target="fWeWGqHYw4TgUaEqcF_e-110" edge="1">
          <mxGeometry width="50" height="50" relative="1" as="geometry">
            <mxPoint x="975" y="450" as="sourcePoint" />
            <mxPoint x="910" y="510" as="targetPoint" />
          </mxGeometry>
        </mxCell>
        <mxCell id="fWeWGqHYw4TgUaEqcF_e-123" value="" style="endArrow=none;html=1;rounded=0;entryX=1;entryY=0.5;entryDx=0;entryDy=0;exitX=0;exitY=0.5;exitDx=0;exitDy=0;" parent="1" source="fWeWGqHYw4TgUaEqcF_e-120" target="fWeWGqHYw4TgUaEqcF_e-110" edge="1">
          <mxGeometry width="50" height="50" relative="1" as="geometry">
            <mxPoint x="985" y="460" as="sourcePoint" />
            <mxPoint x="920" y="520" as="targetPoint" />
          </mxGeometry>
        </mxCell>
        <mxCell id="fWeWGqHYw4TgUaEqcF_e-124" value="STUDENT" style="shape=note;size=20;whiteSpace=wrap;html=1;" parent="1" vertex="1">
          <mxGeometry x="170" y="410" width="290" height="100" as="geometry" />
        </mxCell>
        <mxCell id="fWeWGqHYw4TgUaEqcF_e-125" value="" style="edgeStyle=entityRelationEdgeStyle;fontSize=12;html=1;endArrow=ERzeroToMany;startArrow=ERmandOne;rounded=0;exitX=0.5;exitY=1;exitDx=0;exitDy=0;entryX=0;entryY=0.25;entryDx=0;entryDy=0;" parent="1" source="fWeWGqHYw4TgUaEqcF_e-35" target="569iE3gkdSnbsVmubHWF-28" edge="1">
          <mxGeometry width="100" height="100" relative="1" as="geometry">
            <mxPoint x="770" y="717.5" as="sourcePoint" />
            <mxPoint x="600" y="550" as="targetPoint" />
          </mxGeometry>
        </mxCell>
        <mxCell id="fWeWGqHYw4TgUaEqcF_e-126" value="Progression Bar" style="ellipse;whiteSpace=wrap;html=1;align=center;" parent="1" vertex="1">
          <mxGeometry x="1145" y="725" width="100" height="40" as="geometry" />
        </mxCell>
        <mxCell id="fWeWGqHYw4TgUaEqcF_e-127" value="" style="endArrow=none;html=1;rounded=0;entryX=0;entryY=0.5;entryDx=0;entryDy=0;exitX=1;exitY=0.5;exitDx=0;exitDy=0;" parent="1" source="fWeWGqHYw4TgUaEqcF_e-60" target="fWeWGqHYw4TgUaEqcF_e-126" edge="1">
          <mxGeometry width="50" height="50" relative="1" as="geometry">
            <mxPoint x="1060" y="755" as="sourcePoint" />
            <mxPoint x="1155" y="705" as="targetPoint" />
          </mxGeometry>
        </mxCell>
        <mxCell id="GEEGjnz3eUGXZKiKmKA9-2" value="" style="endArrow=none;html=1;rounded=0;entryX=1;entryY=0.5;entryDx=0;entryDy=0;exitX=0;exitY=0.5;exitDx=0;exitDy=0;" edge="1" parent="1" source="fWeWGqHYw4TgUaEqcF_e-118" target="fWeWGqHYw4TgUaEqcF_e-110">
          <mxGeometry width="50" height="50" relative="1" as="geometry">
            <mxPoint x="955" y="350" as="sourcePoint" />
            <mxPoint x="815" y="355" as="targetPoint" />
          </mxGeometry>
        </mxCell>
        <mxCell id="fWeWGqHYw4TgUaEqcF_e-120" value="list_of_activities" style="ellipse;whiteSpace=wrap;html=1;align=center;" parent="1" vertex="1">
          <mxGeometry x="845" y="320" width="100" height="40" as="geometry" />
        </mxCell>
        <mxCell id="GEEGjnz3eUGXZKiKmKA9-4" value="Learning Path Admin" style="shape=note;size=20;whiteSpace=wrap;html=1;" vertex="1" parent="1">
          <mxGeometry x="120" y="1280" width="290" height="100" as="geometry" />
        </mxCell>
        <mxCell id="GEEGjnz3eUGXZKiKmKA9-5" value="Questions_id" style="ellipse;whiteSpace=wrap;html=1;align=center;" vertex="1" parent="1">
          <mxGeometry x="870" y="910" width="130" height="50" as="geometry" />
        </mxCell>
        <mxCell id="GEEGjnz3eUGXZKiKmKA9-9" value="" style="endArrow=none;html=1;rounded=0;entryX=1;entryY=0.25;entryDx=0;entryDy=0;exitX=0;exitY=0.5;exitDx=0;exitDy=0;" edge="1" parent="1" source="GEEGjnz3eUGXZKiKmKA9-5" target="fWeWGqHYw4TgUaEqcF_e-17">
          <mxGeometry width="50" height="50" relative="1" as="geometry">
            <mxPoint x="520" y="1100" as="sourcePoint" />
            <mxPoint x="480" y="1130" as="targetPoint" />
          </mxGeometry>
        </mxCell>
        <mxCell id="GEEGjnz3eUGXZKiKmKA9-10" value="Learning Path Admin" style="html=1;dashed=0;whiteSpace=wrap;" vertex="1" parent="1">
          <mxGeometry x="270" y="1520" width="100" height="50" as="geometry" />
        </mxCell>
        <mxCell id="GEEGjnz3eUGXZKiKmKA9-13" value="Manages" style="shape=rhombus;html=1;dashed=0;whiteSpace=wrap;perimeter=rhombusPerimeter;" vertex="1" parent="1">
          <mxGeometry x="460" y="1505" width="100" height="80" as="geometry" />
        </mxCell>
        <mxCell id="GEEGjnz3eUGXZKiKmKA9-15" value="Learning Path" style="html=1;dashed=0;whiteSpace=wrap;" vertex="1" parent="1">
          <mxGeometry x="645" y="1520" width="100" height="50" as="geometry" />
        </mxCell>
        <mxCell id="GEEGjnz3eUGXZKiKmKA9-17" value="Course" style="html=1;dashed=0;whiteSpace=wrap;" vertex="1" parent="1">
          <mxGeometry x="645" y="1360" width="100" height="50" as="geometry" />
        </mxCell>
        <mxCell id="GEEGjnz3eUGXZKiKmKA9-18" value="Student" style="html=1;dashed=0;whiteSpace=wrap;" vertex="1" parent="1">
          <mxGeometry x="645" y="1670" width="100" height="50" as="geometry" />
        </mxCell>
        <mxCell id="GEEGjnz3eUGXZKiKmKA9-21" value="" style="edgeStyle=entityRelationEdgeStyle;fontSize=12;html=1;endArrow=ERoneToMany;startArrow=ERmandOne;rounded=0;exitX=1;exitY=0.5;exitDx=0;exitDy=0;entryX=0;entryY=0.5;entryDx=0;entryDy=0;" edge="1" parent="1" source="GEEGjnz3eUGXZKiKmKA9-10" target="GEEGjnz3eUGXZKiKmKA9-13">
          <mxGeometry width="100" height="100" relative="1" as="geometry">
            <mxPoint x="360" y="1700" as="sourcePoint" />
            <mxPoint x="460" y="1600" as="targetPoint" />
          </mxGeometry>
        </mxCell>
        <mxCell id="GEEGjnz3eUGXZKiKmKA9-22" value="" style="edgeStyle=entityRelationEdgeStyle;fontSize=12;html=1;endArrow=ERoneToMany;startArrow=ERmandOne;rounded=0;exitX=1;exitY=0.5;exitDx=0;exitDy=0;entryX=0;entryY=0.5;entryDx=0;entryDy=0;" edge="1" parent="1" source="GEEGjnz3eUGXZKiKmKA9-13" target="GEEGjnz3eUGXZKiKmKA9-15">
          <mxGeometry width="100" height="100" relative="1" as="geometry">
            <mxPoint x="595" y="1630" as="sourcePoint" />
            <mxPoint x="685" y="1630" as="targetPoint" />
          </mxGeometry>
        </mxCell>
        <mxCell id="GEEGjnz3eUGXZKiKmKA9-23" value="" style="edgeStyle=entityRelationEdgeStyle;fontSize=12;html=1;endArrow=ERoneToMany;startArrow=ERmandOne;rounded=0;exitX=0.5;exitY=1;exitDx=0;exitDy=0;entryX=0;entryY=0.5;entryDx=0;entryDy=0;" edge="1" parent="1" source="GEEGjnz3eUGXZKiKmKA9-13" target="GEEGjnz3eUGXZKiKmKA9-18">
          <mxGeometry width="100" height="100" relative="1" as="geometry">
            <mxPoint x="390" y="1565" as="sourcePoint" />
            <mxPoint x="480" y="1565" as="targetPoint" />
          </mxGeometry>
        </mxCell>
        <mxCell id="GEEGjnz3eUGXZKiKmKA9-24" value="" style="edgeStyle=entityRelationEdgeStyle;fontSize=12;html=1;endArrow=ERoneToMany;startArrow=ERmandOne;rounded=0;exitX=0.5;exitY=0;exitDx=0;exitDy=0;entryX=0;entryY=0.5;entryDx=0;entryDy=0;" edge="1" parent="1" source="GEEGjnz3eUGXZKiKmKA9-13" target="GEEGjnz3eUGXZKiKmKA9-17">
          <mxGeometry width="100" height="100" relative="1" as="geometry">
            <mxPoint x="400" y="1575" as="sourcePoint" />
            <mxPoint x="490" y="1575" as="targetPoint" />
          </mxGeometry>
        </mxCell>
      </root>
    </mxGraphModel>
  </diagram>
</mxfile>
